<svg xmlns="http://www.w3.org/2000/svg" width="112" height="72" fill="none" viewBox="0 0 112 72"><g clip-path="url(#a)"><path fill="#2f8635" d="M0 4a4 4 0 0 1 4-4h104a4 4 0 0 1 4 4v64a4 4 0 0 1-4 4H4a4 4 0 0 1-4-4z"/><path fill="#f9c205" fill-rule="evenodd" d="m0 0 24 72H4a4 4 0 0 1-4-4z" clip-rule="evenodd"/><path fill="#fefefe" fill-opacity=".6" d="M97 8h-6v7h-7v6h7v7h6v-7h7v-6h-7z"/><path fill="#fff" fill-opacity=".6" d="M28 55h14l2 3H28zm0 6h38l2 3H28z"/></g><defs><clipPath id="a"><path fill="#fff" d="M0 4a4 4 0 0 1 4-4h104a4 4 0 0 1 4 4v64a4 4 0 0 1-4 4H4a4 4 0 0 1-4-4z"/></clipPath></defs></svg>