<svg xmlns="http://www.w3.org/2000/svg" width="112" height="72" fill="none" viewBox="0 0 112 72"><path fill="#e6eff7" d="M0 4a4 4 0 0 1 4-4h104a4 4 0 0 1 4 4v64a4 4 0 0 1-4 4H4a4 4 0 0 1-4-4z"/><path fill="url(#a)" d="M0 8h112v48H0z"/><path fill="#06318f" d="M0 4a4 4 0 0 1 4-4h104a4 4 0 0 1 4 4v4H0z"/><path fill="#191919" fill-opacity=".3" d="M22.4 34H8v3h16zM46 22H8v3h40zm0 6H8v3h40z"/><defs><linearGradient id="a" x1="0" x2="0" y1="8" y2="56" gradientUnits="userSpaceOnUse"><stop stop-color="#a0d7b2"/><stop offset=".501" stop-color="#b1e8e8"/><stop offset="1" stop-color="#7eb3dc"/></linearGradient></defs></svg>