<svg fill="currentColor" viewBox="0 0 24 24" xmlns="http://www.w3.org/2000/svg">
  <path fill-rule="evenodd" clip-rule="evenodd"
        d="M9.956 5.095H21.4l.6 1.81H9.956a2.5 2.5 0 0 1-4.662 0h-2.69L2 5.095h3.294a2.5 2.5 0 0 1 4.662 0Zm-2.33 1.593a.688.688 0 1 0 0-1.375.688.688 0 0 0 0 1.375ZM21.4 11.095h-2.69a2.5 2.5 0 0 0-4.67 0H2l.603 1.81h11.445a2.5 2.5 0 0 0 4.654 0H22l-.6-1.81Zm-5.025 1.583a.687.687 0 1 0 0-1.375.687.687 0 0 0 0 1.375ZM9.956 17.095H21.4l.6 1.81H9.956a2.5 2.5 0 0 1-4.662 0h-2.69L2 17.095h3.294a2.5 2.5 0 0 1 4.662 0ZM8.313 18a.687.687 0 1 1-1.375 0 .687.687 0 0 1 1.375 0Z"></path>
</svg>

